HIERARCHY
ROOT hip
{
  OFFSET 0 0 0
  CHANNELS 6 Xposition Yposition Zposition Zrotation Yrotation Xrotation
  JOINT abdomen
  {
    OFFSET 0 20.6881 -0.73152
    CHANNELS 3 Zrotation Xrotation Yrotation
    JOINT chest
    {
      OFFSET 0 11.7043 -0.48768
      CHANNELS 3 Zrotation Xrotation Yrotation
      JOINT neck
      {
        OFFSET 0 22.1894 -2.19456
        CHANNELS 3 Zrotation Xrotation Yrotation
        JOINT head
        {
          OFFSET -0.24384 7.07133 1.2192
          CHANNELS 3 Zrotation Xrotation Yrotation
          JOINT leftEye
          {
            OFFSET 4.14528 8.04674 8.04672
            CHANNELS 3 Zrotation Xrotation Yrotation
            End Site
            {
              OFFSET 1 0 0
            }
          }
          JOINT rightEye
          {
            OFFSET -3.6576 8.04674 8.04672
            CHANNELS 3 Zrotation Xrotation Yrotation
            End Site
            {
              OFFSET 1 0 0
            }
          }
        }
      }
      JOINT rCollar
      {
        OFFSET -2.68224 19.2634 -4.8768
        CHANNELS 3 Zrotation Xrotation Yrotation
        JOINT rShldr
        {
          OFFSET -8.77824 -1.95073 1.46304
          CHANNELS 3 Zrotation Xrotation Yrotation
          JOINT rForeArm
          {
            OFFSET -28.1742 -1.7115 0.48768
            CHANNELS 3 Zrotation Xrotation Yrotation
            JOINT rHand
            {
              OFFSET -22.5879 0.773209 7.07136
              CHANNELS 3 Zrotation Xrotation Yrotation
              JOINT rThumb1
              {
                OFFSET -1.2192 -0.487915 3.41376
                CHANNELS 3 Zrotation Xrotation Yrotation
                JOINT rThumb2
                {
                  OFFSET -3.37035 -0.52449 3.41376
                  CHANNELS 3 Zrotation Xrotation Yrotation
                  End Site
                  {
                    OFFSET -1.78271 -1.18214 1.43049
                  }
                }
              }
              JOINT rIndex1
              {
                OFFSET -7.75947 0.938293 5.60832
                CHANNELS 3 Zrotation Xrotation Yrotation
                JOINT rIndex2
                {
                  OFFSET -2.54057 -0.884171 1.56538
                  CHANNELS 3 Zrotation Xrotation Yrotation
                  End Site
                  {
                    OFFSET -1.62519 -0.234802 1.16502
                  }
                }
              }
              JOINT rMid1
              {
                OFFSET -8.24714 1.18213 3.41376
                CHANNELS 3 Zrotation Xrotation Yrotation
                JOINT rMid2
                {
                  OFFSET -3.10165 -0.590103 1.0647
                  CHANNELS 3 Zrotation Xrotation Yrotation
                  End Site
                  {
                    OFFSET -2.48547 -0.328903 0.83742
                  }
                }
              }
              JOINT rRing1
              {
                OFFSET -8.82822 0.546677 1.51678
                CHANNELS 3 Zrotation Xrotation Yrotation
                JOINT rRing2
                {
                  OFFSET -2.60934 -0.819778 -0.0198488
                  CHANNELS 3 Zrotation Xrotation Yrotation
                  End Site
                  {
                    OFFSET -2.33842 -0.294052 0.168128
                  }
                }
              }
              JOINT rPinky1
              {
                OFFSET -8.27202 -0.0477905 -0.4584
                CHANNELS 3 Zrotation Xrotation Yrotation
                JOINT rPinky2
                {
                  OFFSET -1.82734 -0.647385 -0.700984
                  CHANNELS 3 Zrotation Xrotation Yrotation
                  End Site
                  {
                    OFFSET -1.69225 -0.51767 -0.607171
                  }
                }
              }
            }
          }
        }
      }
      JOINT lCollar
      {
        OFFSET 2.68224 19.2634 -4.8768
        CHANNELS 3 Zrotation Xrotation Yrotation
        JOINT lShldr
        {
          OFFSET 8.77824 -1.95073 1.46304
          CHANNELS 3 Zrotation Xrotation Yrotation
          JOINT lForeArm
          {
            OFFSET 28.1742 -1.7115 0.48768
            CHANNELS 3 Zrotation Xrotation Yrotation
            JOINT lHand
            {
              OFFSET 22.5879 0.773209 7.07136
              CHANNELS 3 Zrotation Xrotation Yrotation
              JOINT lThumb1
              {
                OFFSET 1.2192 -0.487915 3.41376
                CHANNELS 3 Zrotation Xrotation Yrotation
                JOINT lThumb2
                {
                  OFFSET 3.37035 -0.52449 3.41376
                  CHANNELS 3 Zrotation Xrotation Yrotation
                  End Site
                  {
                    OFFSET 1.78271 -1.18214 1.43049
                  }
                }
              }
              JOINT lIndex1
              {
                OFFSET 7.75947 0.938293 5.60832
                CHANNELS 3 Zrotation Xrotation Yrotation
                JOINT lIndex2
                {
                  OFFSET 2.54057 -0.884171 1.56538
                  CHANNELS 3 Zrotation Xrotation Yrotation
                  End Site
                  {
                    OFFSET 1.62519 -0.234802 1.16502
                  }
                }
              }
              JOINT lMid1
              {
                OFFSET 8.24714 1.18213 3.41376
                CHANNELS 3 Zrotation Xrotation Yrotation
                JOINT lMid2
                {
                  OFFSET 3.10165 -0.590103 1.0647
                  CHANNELS 3 Zrotation Xrotation Yrotation
                  End Site
                  {
                    OFFSET 2.48547 -0.328903 0.83742
                  }
                }
              }
              JOINT lRing1
              {
                OFFSET 8.82822 0.546677 1.51678
                CHANNELS 3 Zrotation Xrotation Yrotation
                JOINT lRing2
                {
                  OFFSET 2.60934 -0.819778 -0.0198488
                  CHANNELS 3 Zrotation Xrotation Yrotation
                  End Site
                  {
                    OFFSET 2.33842 -0.294052 0.168128
                  }
                }
              }
              JOINT lPinky1
              {
                OFFSET 8.27202 -0.0477905 -0.4584
                CHANNELS 3 Zrotation Xrotation Yrotation
                JOINT lPinky2
                {
                  OFFSET 1.82734 -0.647385 -0.700984
                  CHANNELS 3 Zrotation Xrotation Yrotation
                  End Site
                  {
                    OFFSET 1.69225 -0.51767 -0.607171
                  }
                }
              }
            }
          }
        }
      }
    }
  }
  JOINT rButtock
  {
    OFFSET -8.77824 4.35084 1.2192
    CHANNELS 3 Zrotation Xrotation Yrotation
    JOINT rThigh
    {
      OFFSET 0 -1.70687 -2.19456
      CHANNELS 3 Zrotation Xrotation Yrotation
      JOINT rShin
      {
        OFFSET 0 -36.8199 0.73152
        CHANNELS 3 Zrotation Xrotation Yrotation
        JOINT rFoot
        {
          OFFSET 0.73152 -45.1104 -5.12064
          CHANNELS 3 Zrotation Xrotation Yrotation
          End Site
          {
            OFFSET -1.1221 -3.69964 12.103
          }
        }
      }
    }
  }
  JOINT lButtock
  {
    OFFSET 8.77824 4.35084 1.2192
    CHANNELS 3 Zrotation Xrotation Yrotation
    JOINT lThigh
    {
      OFFSET 0 -1.70687 -2.19456
      CHANNELS 3 Zrotation Xrotation Yrotation
      JOINT lShin
      {
        OFFSET 0 -36.8199 0.73152
        CHANNELS 3 Zrotation Xrotation Yrotation
        JOINT lFoot
        {
          OFFSET -0.73152 -45.1104 -5.12064
          CHANNELS 3 Zrotation Xrotation Yrotation
          End Site
          {
            OFFSET 1.1221 -3.69964 12.103
          }
        }
      }
    }
  }
}
MOTION
Frames:	5
Frame Time:	0.00833333
5.9141 83.185 31.8287 0.0 0.0 0.0 -3.13119 0.00208552 -0.0845026 -0.863225 0.0181966 -0.149331 5.21256e-14 -2.38542e-15 -3.47873e-16 1.5531e-13 -6.36111e-15 -1.14456e-15 -0.0 0.0 0.0 -0.0 0.0 0.0 2.59916e-14 1.74907e-16 4.96962e-17 5.45929e-13 3.90115e-15 -1.59028e-15 9.39287e-12 -2.68161e-12 -1.74931e-13 1.07556e-10 3.51158e-12 -6.23389e-13 2.537e-10 1.79795e-12 -1.7334e-12 4.38124e-10 3.1074e-12 -3.00006e-12 2.53705e-10 1.799e-12 -1.73976e-12 7.73091 5.47488 0.417314 2.53701e-10 1.79801e-12 -1.7334e-12 2.90554 0.965183 0.102902 2.53706e-10 1.79781e-12 -1.73102e-12 10.2786 0.731801 0.0259123 2.53694e-10 1.79821e-12 -1.72386e-12 2.22167 -0.733487 -0.20892 2.59923e-14 1.73742e-16 -3.47873e-16 5.44134e-13 3.926e-15 -2.78299e-15 9.41245e-12 2.93863e-12 -1.30403e-13 1.07612e-10 -2.11487e-12 -6.36111e-13 2.53852e-10 1.78377e-12 -1.72704e-12 4.38395e-10 3.07878e-12 -2.98177e-12 2.53848e-10 1.7831e-12 -1.71432e-12 -7.73091 5.47488 -0.417314 2.53853e-10 1.7834e-12 -1.72704e-12 -2.90554 0.965183 -0.102902 2.53848e-10 1.78399e-12 -1.72466e-12 -10.2786 0.731801 -0.0259123 2.53858e-10 1.78588e-12 -1.7334e-12 -2.22167 -0.733487 0.20892 -2.03217e-16 0.0 -3.88251e-19 -1.91894 -1.93503 0.0146271 -0.00849953 -2.07867 -0.0697514 -0.458499 4.00011 0.132434 2.03217e-16 0.0 3.88251e-19 -2.83838 -9.32624 0.322368 -0.00902395 11.3079 -0.235071 0.527512 -1.99508 -0.0183767
6.96646 82.3708 19.2878 -179.761 9.1515 178.647 -3.33662 1.70017 -0.104955 -0.62417 1.44157 -0.148095 -3.09772 3.95672 0.54429 4.95578 -10.3741 2.98139 -0.0 0.0 0.0 -0.0 0.0 0.0 2.25163e-14 2.51624e-14 1.74954e-14 20.8746 16.1513 -0.0147306 -22.8625 -20.7347 14.9089 0.14966 -8.59956 -1.16 4.46244e-10 -2.46766e-09 2.16688e-10 7.65164e-10 -4.27014e-09 3.81021e-10 4.46248e-10 -2.46766e-09 2.16682e-10 7.73091 5.47488 0.417314 4.46245e-10 -2.46766e-09 2.16686e-10 2.90554 0.965183 0.102902 4.46248e-10 -2.46766e-09 2.16689e-10 10.2786 0.731801 0.0259123 4.46238e-10 -2.46766e-09 2.16696e-10 2.22167 -0.733487 -0.20892 2.24688e-14 2.51596e-14 1.71339e-14 -21.2566 16.3645 -0.257746 22.7859 -20.6576 -14.9215 -0.280047 -11.7862 1.5327 -2.17314e-10 -1.43099e-09 -3.28492e-10 -3.63705e-10 -2.48589e-09 -5.79675e-10 -2.17317e-10 -1.43099e-09 -3.28479e-10 -7.73091 5.47488 -0.417314 -2.17312e-10 -1.43099e-09 -3.2849e-10 -2.90554 0.965183 -0.102902 -2.1732e-10 -1.43099e-09 -3.2849e-10 -10.2786 0.731801 -0.0259123 -2.17309e-10 -1.43099e-09 -3.28497e-10 -2.22167 -0.733487 0.20892 -2.03217e-16 0.0 -3.88251e-19 -2.36625 -3.6038 0.965867 0.0207365 5.61681 0.111879 -1.36106 -0.867265 -6.83869 2.03217e-16 0.0 3.88251e-19 -0.330958 -9.70069 1.2843 -0.016641 17.0312 -0.327108 1.30798 -6.0151 5.22276
6.96175 82.3638 19.298 -179.794 9.1826 178.695 -3.55126 3.49453 -0.128528 -0.371239 2.94579 -0.14743 -6.45606 8.13895 1.12702 11.4514 -21.2443 6.47429 -0.0 0.0 0.0 -0.0 0.0 0.0 1.8393e-14 5.30543e-14 3.83468e-14 42.952 33.2236 -0.0370837 -33.266 -37.5735 37.212 -0.087741 -17.6787 -2.47649 6.65641e-10 -5.24386e-09 4.63948e-10 1.13783e-09 -9.07376e-09 8.15674e-10 6.65645e-10 -5.24386e-09 4.63941e-10 7.73091 5.47488 0.417314 6.65643e-10 -5.24386e-09 4.63944e-10 2.90554 0.965183 0.102902 6.65645e-10 -5.24385e-09 4.63948e-10 10.2786 0.731801 0.0259123 6.65636e-10 -5.24386e-09 4.63955e-10 2.22167 -0.733487 -0.20892 1.82903e-14 5.30499e-14 3.80207e-14 -43.539 33.6627 -0.611841 33.1697 -37.4228 -37.181 0.169514 -24.2227 3.38546 -7.45376e-10 -3.05914e-09 -7.00945e-10 -1.26247e-09 -5.31401e-09 -1.23688e-09 -7.45379e-10 -3.05914e-09 -7.00932e-10 -7.73091 5.47488 -0.417314 -7.45374e-10 -3.05914e-09 -7.00941e-10 -2.90554 0.965183 -0.102902 -7.45385e-10 -3.05914e-09 -7.00944e-10 -10.2786 0.731801 -0.0259123 -7.45372e-10 -3.05914e-09 -7.00949e-10 -2.22167 -0.733487 0.20892 -2.03217e-16 0.0 -3.88251e-19 -2.77599 -5.36666 1.98049 -0.00257206 13.752 0.311838 -3.59713 -5.84822 -14.2834 2.03217e-16 0.0 3.88251e-19 2.33497 -10.0951 2.3038 -0.00269257 23.081 -0.434396 2.93893 -10.1232 10.8814
6.9548 82.3614 19.3036 -179.828 9.1899 178.72 -3.74383 5.09633 -0.146299 -0.146232 4.28833 -0.145892 -9.52284 11.8658 1.66455 18.5399 -30.7566 10.2522 -0.0 0.0 0.0 -0.0 0.0 0.0 1.55657e-14 7.51372e-14 5.23867e-14 62.6593 48.454 -0.064002 -30.7376 -42.1725 64.0019 -0.692803 -25.754 -3.8209 8.31331e-10 -7.40658e-09 6.5353e-10 1.41924e-09 -1.28166e-08 1.14906e-09 8.31334e-10 -7.40658e-09 6.53524e-10 7.73091 5.47488 0.417314 8.31333e-10 -7.40657e-09 6.53525e-10 2.90554 0.965183 0.102902 8.31334e-10 -7.40656e-09 6.53529e-10 10.2786 0.731801 0.0259123 8.31326e-10 -7.40658e-09 6.53537e-10 2.22167 -0.733487 -0.20892 1.54217e-14 7.51313e-14 5.20975e-14 -63.1313 49.0883 -1.13291 30.7176 -42.0237 -63.8574 1.40919 -35.2455 5.51429 -1.15964e-09 -4.29653e-09 -9.82023e-10 -1.96791e-09 -7.46382e-09 -1.73306e-09 -1.15965e-09 -4.29653e-09 -9.82009e-10 -7.73091 5.47488 -0.417314 -1.15964e-09 -4.29653e-09 -9.82017e-10 -2.90554 0.965183 -0.102902 -1.15965e-09 -4.29653e-09 -9.82022e-10 -10.2786 0.731801 -0.0259123 -1.15964e-09 -4.29653e-09 -9.82026e-10 -2.22167 -0.733487 0.20892 -2.03217e-16 0.0 -3.88251e-19 -3.09361 -6.93416 2.88374 -0.0748077 21.007 0.507145 -6.67843 -9.92268 -21.1084 2.03217e-16 0.0 3.88251e-19 4.72221 -10.4404 3.21487 0.031787 28.4774 -0.542971 5.09853 -13.5978 16.081
6.95975 82.3634 19.301 -179.805 9.1833 178.704 -3.88434 6.21676 -0.149157 0.00895272 5.22671 -0.141976 -11.698 14.4584 2.05914 24.3863 -37.2167 13.5154 -0.0 0.0 0.0 -0.0 0.0 0.0 1.59787e-14 8.26975e-14 4.9398e-14 76.4048 59.0798 -0.0783408 -28.3232 -38.1036 80.5861 -1.38025 -31.362 -4.91389 8.62751e-10 -8.0356e-09 6.98921e-10 1.47252e-09 -1.39077e-08 1.2293e-09 8.62754e-10 -8.0356e-09 6.98914e-10 7.73091 5.47488 0.417314 8.62753e-10 -8.0356e-09 6.98914e-10 2.90554 0.965183 0.102902 8.62753e-10 -8.03558e-09 6.98919e-10 10.2786 0.731801 0.0259123 8.62746e-10 -8.0356e-09 6.98927e-10 2.22167 -0.733487 -0.20892 1.5828e-14 8.26905e-14 4.91495e-14 -76.4465 59.8361 -1.79418 28.3319 -38.0074 -80.42 2.94095 -42.8385 7.48797 -1.28943e-09 -4.55702e-09 -1.03466e-09 -2.19004e-09 -7.91782e-09 -1.82671e-09 -1.28943e-09 -4.55702e-09 -1.03465e-09 -7.73091 5.47488 -0.417314 -1.28943e-09 -4.55702e-09 -1.03466e-09 -2.90554 0.965183 -0.102902 -1.28944e-09 -4.55702e-09 -1.03466e-09 -10.2786 0.731801 -0.0259123 -1.28943e-09 -4.55702e-09 -1.03467e-09 -2.22167 -0.733487 0.20892 -2.03217e-16 0.0 -3.88251e-19 -3.30064 -8.01981 3.49513 -0.15791 26.0624 0.658382 -9.39528 -12.4272 -26.0035 2.03217e-16 0.0 3.88251e-19 6.38534 -10.6697 3.84997 0.0703108 32.2405 -0.628864 7.00697 -15.9121 19.7963
